<mxfile host="65bd71144e">
    <diagram id="6aBOskwQsQeoWCjWC5uv" name="Page-1">
        <mxGraphModel dx="1776" dy="909" grid="1" gridSize="14" guides="1" tooltips="1" connect="1" arrows="1" fold="1" page="1" pageScale="1" pageWidth="1654" pageHeight="2336" math="0" shadow="0">
            <root>
                <mxCell id="0"/>
                <mxCell id="1" parent="0"/>
                <mxCell id="17" value="" style="rounded=0;whiteSpace=wrap;html=1;fontSize=14;strokeColor=default;strokeWidth=1;" parent="1" vertex="1">
                    <mxGeometry x="28" y="432" width="120" height="136" as="geometry"/>
                </mxCell>
                <mxCell id="18" value="&lt;span style=&quot;font-size: 14px;&quot;&gt;&lt;b&gt;Kunde&lt;/b&gt;&lt;/span&gt;" style="text;strokeColor=none;align=center;fillColor=none;html=1;verticalAlign=middle;whiteSpace=wrap;rounded=0;strokeWidth=1;" parent="1" vertex="1">
                    <mxGeometry x="28" y="432" width="120" height="25" as="geometry"/>
                </mxCell>
                <mxCell id="19" style="edgeStyle=none;html=1;exitX=0;exitY=0;exitDx=0;exitDy=0;entryX=1;entryY=0;entryDx=0;entryDy=0;endArrow=none;endFill=0;" parent="1" edge="1">
                    <mxGeometry relative="1" as="geometry">
                        <mxPoint x="28" y="457" as="sourcePoint"/>
                        <mxPoint x="148" y="457" as="targetPoint"/>
                    </mxGeometry>
                </mxCell>
                <mxCell id="20" value="&lt;span style=&quot;font-size: 14px;&quot;&gt;TelefonNr&lt;/span&gt;" style="text;strokeColor=none;align=center;fillColor=none;html=1;verticalAlign=middle;whiteSpace=wrap;rounded=0;strokeWidth=1;fontStyle=0" parent="1" vertex="1">
                    <mxGeometry x="28" y="477" width="120" height="20" as="geometry"/>
                </mxCell>
                <mxCell id="21" value="&lt;span style=&quot;font-size: 14px;&quot;&gt;Navn&lt;/span&gt;" style="text;strokeColor=none;align=center;fillColor=none;html=1;verticalAlign=middle;whiteSpace=wrap;rounded=0;strokeWidth=1;fontStyle=0" parent="1" vertex="1">
                    <mxGeometry x="28" y="497" width="120" height="20" as="geometry"/>
                </mxCell>
                <mxCell id="22" value="&lt;span style=&quot;font-size: 14px;&quot;&gt;Adresse&lt;/span&gt;" style="text;strokeColor=none;align=center;fillColor=none;html=1;verticalAlign=middle;whiteSpace=wrap;rounded=0;strokeWidth=1;fontStyle=0" parent="1" vertex="1">
                    <mxGeometry x="28" y="517" width="120" height="20" as="geometry"/>
                </mxCell>
                <mxCell id="25" value="&lt;span style=&quot;font-size: 14px;&quot;&gt;&lt;u&gt;KundeNr&lt;/u&gt;&lt;/span&gt;" style="text;strokeColor=none;align=center;fillColor=none;html=1;verticalAlign=middle;whiteSpace=wrap;rounded=0;strokeWidth=1;labelPosition=center;verticalLabelPosition=middle;" parent="1" vertex="1">
                    <mxGeometry x="28" y="457" width="120" height="20" as="geometry"/>
                </mxCell>
                <mxCell id="27" value="" style="rounded=0;whiteSpace=wrap;html=1;fontSize=14;strokeColor=default;strokeWidth=1;" parent="1" vertex="1">
                    <mxGeometry x="502" y="421" width="120" height="145" as="geometry"/>
                </mxCell>
                <mxCell id="28" value="&lt;span style=&quot;font-size: 14px;&quot;&gt;&lt;b&gt;Teatersal&lt;/b&gt;&lt;/span&gt;" style="text;strokeColor=none;align=center;fillColor=none;html=1;verticalAlign=middle;whiteSpace=wrap;rounded=0;strokeWidth=1;" parent="1" vertex="1">
                    <mxGeometry x="502" y="421" width="120" height="25" as="geometry"/>
                </mxCell>
                <mxCell id="29" style="edgeStyle=none;html=1;exitX=0;exitY=0;exitDx=0;exitDy=0;entryX=1;entryY=0;entryDx=0;entryDy=0;endArrow=none;endFill=0;" parent="1" edge="1">
                    <mxGeometry relative="1" as="geometry">
                        <mxPoint x="502" y="446" as="sourcePoint"/>
                        <mxPoint x="622" y="446" as="targetPoint"/>
                    </mxGeometry>
                </mxCell>
                <mxCell id="30" value="&lt;span style=&quot;font-size: 14px;&quot;&gt;Navn&lt;/span&gt;" style="text;strokeColor=none;align=center;fillColor=none;html=1;verticalAlign=middle;whiteSpace=wrap;rounded=0;strokeWidth=1;fontStyle=0" parent="1" vertex="1">
                    <mxGeometry x="502" y="466" width="120" height="20" as="geometry"/>
                </mxCell>
                <mxCell id="31" value="&lt;span style=&quot;font-size: 14px;&quot;&gt;Kapasitet&lt;/span&gt;" style="text;strokeColor=none;align=center;fillColor=none;html=1;verticalAlign=middle;whiteSpace=wrap;rounded=0;strokeWidth=1;fontStyle=0" parent="1" vertex="1">
                    <mxGeometry x="502" y="486" width="120" height="20" as="geometry"/>
                </mxCell>
                <mxCell id="32" value="&lt;font style=&quot;font-size: 14px;&quot;&gt;Attribute3&lt;/font&gt;" style="text;strokeColor=none;align=center;fillColor=none;html=1;verticalAlign=middle;whiteSpace=wrap;rounded=0;strokeWidth=1;fontStyle=0" parent="1" vertex="1">
                    <mxGeometry x="502" y="506" width="120" height="20" as="geometry"/>
                </mxCell>
                <mxCell id="33" value="&lt;font style=&quot;font-size: 14px;&quot;&gt;Attribute4&lt;/font&gt;" style="text;strokeColor=none;align=center;fillColor=none;html=1;verticalAlign=middle;whiteSpace=wrap;rounded=0;strokeWidth=1;fontStyle=0" parent="1" vertex="1">
                    <mxGeometry x="502" y="526" width="120" height="20" as="geometry"/>
                </mxCell>
                <mxCell id="34" value="&lt;font style=&quot;font-size: 14px;&quot;&gt;Attribute5&lt;/font&gt;" style="text;strokeColor=none;align=center;fillColor=none;html=1;verticalAlign=middle;whiteSpace=wrap;rounded=0;strokeWidth=1;fontStyle=0" parent="1" vertex="1">
                    <mxGeometry x="502" y="546" width="120" height="20" as="geometry"/>
                </mxCell>
                <mxCell id="35" value="&lt;span style=&quot;font-size: 14px;&quot;&gt;&lt;u&gt;SalID&lt;/u&gt;&lt;/span&gt;" style="text;strokeColor=none;align=center;fillColor=none;html=1;verticalAlign=middle;whiteSpace=wrap;rounded=0;strokeWidth=1;labelPosition=center;verticalLabelPosition=middle;" parent="1" vertex="1">
                    <mxGeometry x="502" y="446" width="120" height="20" as="geometry"/>
                </mxCell>
                <mxCell id="45" value="" style="rounded=0;whiteSpace=wrap;html=1;fontSize=14;strokeColor=default;strokeWidth=1;" parent="1" vertex="1">
                    <mxGeometry x="622" y="136" width="120" height="88" as="geometry"/>
                </mxCell>
                <mxCell id="46" value="" style="rounded=0;whiteSpace=wrap;html=1;fontSize=14;strokeColor=default;strokeWidth=1;" parent="1" vertex="1">
                    <mxGeometry x="627" y="145.5" width="110" height="69" as="geometry"/>
                </mxCell>
                <mxCell id="47" value="&lt;span style=&quot;font-size: 14px;&quot;&gt;&lt;b&gt;Forestilling&lt;/b&gt;&lt;/span&gt;" style="text;strokeColor=none;align=center;fillColor=none;html=1;verticalAlign=middle;whiteSpace=wrap;rounded=0;strokeWidth=1;" parent="1" vertex="1">
                    <mxGeometry x="627" y="145.5" width="110" height="25" as="geometry"/>
                </mxCell>
                <mxCell id="50" style="edgeStyle=none;html=1;exitX=0;exitY=0;exitDx=0;exitDy=0;entryX=1;entryY=0;entryDx=0;entryDy=0;endArrow=none;endFill=0;" parent="1" edge="1">
                    <mxGeometry relative="1" as="geometry">
                        <mxPoint x="627" y="170.5" as="sourcePoint"/>
                        <mxPoint x="737" y="170.5" as="targetPoint"/>
                    </mxGeometry>
                </mxCell>
                <mxCell id="353" value="" style="edgeStyle=none;html=1;fontColor=#FFFFFF;exitX=0.5;exitY=1;exitDx=0;exitDy=0;" edge="1" parent="1" source="45" target="223">
                    <mxGeometry relative="1" as="geometry"/>
                </mxCell>
                <mxCell id="52" value="&lt;span style=&quot;font-size: 14px;&quot;&gt;Tidspunkt&lt;/span&gt;" style="text;strokeColor=none;align=center;fillColor=none;html=1;verticalAlign=middle;whiteSpace=wrap;rounded=0;strokeWidth=1;fontStyle=4" parent="1" vertex="1">
                    <mxGeometry x="627" y="170.5" width="110" height="20" as="geometry"/>
                </mxCell>
                <mxCell id="53" value="" style="rounded=0;whiteSpace=wrap;html=1;fontSize=14;strokeColor=default;strokeWidth=1;" parent="1" vertex="1">
                    <mxGeometry x="840" y="251" width="120" height="145" as="geometry"/>
                </mxCell>
                <mxCell id="54" value="&lt;span style=&quot;font-size: 14px;&quot;&gt;&lt;b&gt;Teaterstykke&lt;/b&gt;&lt;/span&gt;" style="text;strokeColor=none;align=center;fillColor=none;html=1;verticalAlign=middle;whiteSpace=wrap;rounded=0;strokeWidth=1;" parent="1" vertex="1">
                    <mxGeometry x="840" y="251" width="120" height="25" as="geometry"/>
                </mxCell>
                <mxCell id="55" style="edgeStyle=none;html=1;exitX=0;exitY=0;exitDx=0;exitDy=0;entryX=1;entryY=0;entryDx=0;entryDy=0;endArrow=none;endFill=0;" parent="1" edge="1">
                    <mxGeometry relative="1" as="geometry">
                        <mxPoint x="840" y="276" as="sourcePoint"/>
                        <mxPoint x="960" y="276" as="targetPoint"/>
                    </mxGeometry>
                </mxCell>
                <mxCell id="56" value="&lt;span style=&quot;font-size: 14px;&quot;&gt;Navn&lt;/span&gt;" style="text;strokeColor=none;align=center;fillColor=none;html=1;verticalAlign=middle;whiteSpace=wrap;rounded=0;strokeWidth=1;fontStyle=0" parent="1" vertex="1">
                    <mxGeometry x="840" y="296" width="120" height="20" as="geometry"/>
                </mxCell>
                <mxCell id="57" value="&lt;font style=&quot;font-size: 14px;&quot;&gt;Attribute2&lt;/font&gt;" style="text;strokeColor=none;align=center;fillColor=none;html=1;verticalAlign=middle;whiteSpace=wrap;rounded=0;strokeWidth=1;fontStyle=0" parent="1" vertex="1">
                    <mxGeometry x="840" y="316" width="120" height="20" as="geometry"/>
                </mxCell>
                <mxCell id="58" value="&lt;font style=&quot;font-size: 14px;&quot;&gt;Attribute3&lt;/font&gt;" style="text;strokeColor=none;align=center;fillColor=none;html=1;verticalAlign=middle;whiteSpace=wrap;rounded=0;strokeWidth=1;fontStyle=0" parent="1" vertex="1">
                    <mxGeometry x="840" y="336" width="120" height="20" as="geometry"/>
                </mxCell>
                <mxCell id="59" value="&lt;font style=&quot;font-size: 14px;&quot;&gt;Attribute4&lt;/font&gt;" style="text;strokeColor=none;align=center;fillColor=none;html=1;verticalAlign=middle;whiteSpace=wrap;rounded=0;strokeWidth=1;fontStyle=0" parent="1" vertex="1">
                    <mxGeometry x="840" y="356" width="120" height="20" as="geometry"/>
                </mxCell>
                <mxCell id="60" value="&lt;font style=&quot;font-size: 14px;&quot;&gt;Attribute5&lt;/font&gt;" style="text;strokeColor=none;align=center;fillColor=none;html=1;verticalAlign=middle;whiteSpace=wrap;rounded=0;strokeWidth=1;fontStyle=0" parent="1" vertex="1">
                    <mxGeometry x="840" y="376" width="120" height="20" as="geometry"/>
                </mxCell>
                <mxCell id="61" value="&lt;span style=&quot;font-size: 14px;&quot;&gt;StykkeID&lt;/span&gt;" style="text;strokeColor=none;align=center;fillColor=none;html=1;verticalAlign=middle;whiteSpace=wrap;rounded=0;strokeWidth=1;labelPosition=center;verticalLabelPosition=middle;fontStyle=4" parent="1" vertex="1">
                    <mxGeometry x="840" y="276" width="120" height="20" as="geometry"/>
                </mxCell>
                <mxCell id="62" value="" style="rounded=0;whiteSpace=wrap;html=1;fontSize=14;strokeColor=default;strokeWidth=1;" parent="1" vertex="1">
                    <mxGeometry x="322" y="127" width="120" height="111" as="geometry"/>
                </mxCell>
                <mxCell id="63" value="&lt;span style=&quot;font-size: 14px;&quot;&gt;&lt;b&gt;Billett&lt;/b&gt;&lt;/span&gt;" style="text;strokeColor=none;align=center;fillColor=none;html=1;verticalAlign=middle;whiteSpace=wrap;rounded=0;strokeWidth=1;" parent="1" vertex="1">
                    <mxGeometry x="322" y="129" width="120" height="25" as="geometry"/>
                </mxCell>
                <mxCell id="64" style="edgeStyle=none;html=1;exitX=0;exitY=0;exitDx=0;exitDy=0;entryX=1;entryY=0;entryDx=0;entryDy=0;endArrow=none;endFill=0;" parent="1" edge="1">
                    <mxGeometry relative="1" as="geometry">
                        <mxPoint x="322" y="154" as="sourcePoint"/>
                        <mxPoint x="442" y="154" as="targetPoint"/>
                    </mxGeometry>
                </mxCell>
                <mxCell id="70" value="&lt;span style=&quot;border-bottom: 1px solid black&quot;&gt;&lt;font style=&quot;font-size: 14px;&quot;&gt;billettID&lt;/font&gt;&lt;/span&gt;" style="text;strokeColor=none;align=center;fillColor=none;html=1;verticalAlign=middle;whiteSpace=wrap;rounded=0;strokeWidth=1;labelPosition=center;verticalLabelPosition=middle;fontStyle=4" parent="1" vertex="1">
                    <mxGeometry x="322" y="154" width="120" height="20" as="geometry"/>
                </mxCell>
                <mxCell id="84" value="" style="rounded=0;whiteSpace=wrap;html=1;fontSize=14;strokeColor=default;strokeWidth=1;" parent="1" vertex="1">
                    <mxGeometry x="200" y="450.25" width="120" height="115" as="geometry"/>
                </mxCell>
                <mxCell id="85" value="" style="rounded=0;whiteSpace=wrap;html=1;fontSize=14;strokeColor=default;strokeWidth=1;" parent="1" vertex="1">
                    <mxGeometry x="205" y="455.25" width="110" height="105" as="geometry"/>
                </mxCell>
                <mxCell id="86" value="&lt;span style=&quot;font-size: 14px;&quot;&gt;&lt;b&gt;Stol&lt;/b&gt;&lt;/span&gt;" style="text;strokeColor=none;align=center;fillColor=none;html=1;verticalAlign=middle;whiteSpace=wrap;rounded=0;strokeWidth=1;" parent="1" vertex="1">
                    <mxGeometry x="205" y="455.25" width="110" height="25" as="geometry"/>
                </mxCell>
                <mxCell id="87" value="&lt;span style=&quot;font-size: 14px;&quot;&gt;RadNr&lt;/span&gt;" style="text;strokeColor=none;align=center;fillColor=none;html=1;verticalAlign=middle;whiteSpace=wrap;rounded=0;strokeWidth=1;fontStyle=4" parent="1" vertex="1">
                    <mxGeometry x="205" y="500.25" width="110" height="20" as="geometry"/>
                </mxCell>
                <mxCell id="88" value="&lt;span style=&quot;font-size: 14px;&quot;&gt;Område&lt;/span&gt;" style="text;strokeColor=none;align=center;fillColor=none;html=1;verticalAlign=middle;whiteSpace=wrap;rounded=0;strokeWidth=1;fontStyle=4" parent="1" vertex="1">
                    <mxGeometry x="205" y="520.25" width="110" height="20" as="geometry"/>
                </mxCell>
                <mxCell id="89" style="edgeStyle=none;html=1;exitX=0;exitY=0;exitDx=0;exitDy=0;entryX=1;entryY=0;entryDx=0;entryDy=0;endArrow=none;endFill=0;" parent="1" edge="1">
                    <mxGeometry relative="1" as="geometry">
                        <mxPoint x="205" y="480.25" as="sourcePoint"/>
                        <mxPoint x="315" y="480.25" as="targetPoint"/>
                    </mxGeometry>
                </mxCell>
                <mxCell id="91" value="&lt;span style=&quot;font-size: 14px;&quot;&gt;StolNr&lt;/span&gt;" style="text;strokeColor=none;align=center;fillColor=none;html=1;verticalAlign=middle;whiteSpace=wrap;rounded=0;strokeWidth=1;fontStyle=4" parent="1" vertex="1">
                    <mxGeometry x="205" y="481.25" width="110" height="16.5" as="geometry"/>
                </mxCell>
                <mxCell id="129" value="" style="rounded=0;whiteSpace=wrap;html=1;fontSize=14;strokeColor=default;strokeWidth=1;glass=0;labelBorderColor=none;fillColor=none;" parent="1" vertex="1">
                    <mxGeometry x="840.5" y="61" width="120" height="75" as="geometry"/>
                </mxCell>
                <mxCell id="130" value="" style="rounded=0;whiteSpace=wrap;html=1;fontSize=14;strokeColor=default;strokeWidth=1;glass=0;labelBorderColor=none;fillColor=none;" parent="1" vertex="1">
                    <mxGeometry x="845.5" y="66" width="110" height="65" as="geometry"/>
                </mxCell>
                <mxCell id="131" value="&lt;b&gt;&lt;font style=&quot;font-size: 14px;&quot;&gt;Akt&lt;/font&gt;&lt;/b&gt;" style="text;strokeColor=none;align=center;fillColor=none;html=1;verticalAlign=middle;whiteSpace=wrap;rounded=0;strokeWidth=1;glass=0;labelBorderColor=none;" parent="1" vertex="1">
                    <mxGeometry x="845.5" y="66" width="110" height="25" as="geometry"/>
                </mxCell>
                <mxCell id="132" value="&lt;span style=&quot;border-bottom: 1px dashed black&quot;&gt;&lt;font style=&quot;font-size: 14px;&quot;&gt;AktNavn&lt;/font&gt;&lt;/span&gt;" style="text;strokeColor=none;align=center;fillColor=none;html=1;verticalAlign=middle;whiteSpace=wrap;rounded=0;strokeWidth=1;glass=0;labelBorderColor=none;" parent="1" vertex="1">
                    <mxGeometry x="845.5" y="91" width="110" height="20" as="geometry"/>
                </mxCell>
                <mxCell id="133" value="&lt;span style=&quot;border-color: var(--border-color); font-size: 14px;&quot;&gt;Info&lt;/span&gt;" style="text;strokeColor=none;align=center;fillColor=none;html=1;verticalAlign=middle;whiteSpace=wrap;rounded=0;strokeWidth=1;glass=0;labelBorderColor=none;" parent="1" vertex="1">
                    <mxGeometry x="845.5" y="111" width="110" height="20" as="geometry"/>
                </mxCell>
                <mxCell id="134" style="edgeStyle=none;html=1;exitX=0;exitY=0;exitDx=0;exitDy=0;entryX=1;entryY=0;entryDx=0;entryDy=0;endArrow=none;endFill=0;" parent="1" source="132" target="132" edge="1">
                    <mxGeometry relative="1" as="geometry"/>
                </mxCell>
                <mxCell id="136" value="&lt;b&gt;HarForestilling&lt;/b&gt;" style="text;strokeColor=none;align=center;fillColor=none;html=1;verticalAlign=middle;whiteSpace=wrap;rounded=0;fontSize=14;glass=0;labelBorderColor=none;strokeWidth=2;" parent="1" vertex="1">
                    <mxGeometry x="652" y="307.5" width="60" height="20" as="geometry"/>
                </mxCell>
                <mxCell id="143" value="" style="rounded=0;whiteSpace=wrap;html=1;fontSize=14;strokeColor=default;strokeWidth=1;" parent="1" vertex="1">
                    <mxGeometry x="841" y="483" width="120" height="144.5" as="geometry"/>
                </mxCell>
                <mxCell id="144" value="&lt;span style=&quot;font-size: 14px;&quot;&gt;&lt;b&gt;Ansatt&lt;/b&gt;&lt;/span&gt;" style="text;strokeColor=none;align=center;fillColor=none;html=1;verticalAlign=middle;whiteSpace=wrap;rounded=0;strokeWidth=1;" parent="1" vertex="1">
                    <mxGeometry x="841" y="483" width="120" height="25" as="geometry"/>
                </mxCell>
                <mxCell id="145" style="edgeStyle=none;html=1;exitX=0;exitY=0;exitDx=0;exitDy=0;entryX=1;entryY=0;entryDx=0;entryDy=0;endArrow=none;endFill=0;" parent="1" edge="1">
                    <mxGeometry relative="1" as="geometry">
                        <mxPoint x="841" y="508" as="sourcePoint"/>
                        <mxPoint x="961" y="508" as="targetPoint"/>
                    </mxGeometry>
                </mxCell>
                <mxCell id="146" value="&lt;span style=&quot;font-size: 14px;&quot;&gt;Navn&lt;/span&gt;" style="text;strokeColor=none;align=center;fillColor=none;html=1;verticalAlign=middle;whiteSpace=wrap;rounded=0;strokeWidth=1;fontStyle=0" parent="1" vertex="1">
                    <mxGeometry x="841" y="528" width="120" height="20" as="geometry"/>
                </mxCell>
                <mxCell id="147" value="&lt;span style=&quot;font-size: 14px;&quot;&gt;TelefonNr&lt;/span&gt;" style="text;strokeColor=none;align=center;fillColor=none;html=1;verticalAlign=middle;whiteSpace=wrap;rounded=0;strokeWidth=1;fontStyle=0" parent="1" vertex="1">
                    <mxGeometry x="841" y="548" width="120" height="20" as="geometry"/>
                </mxCell>
                <mxCell id="148" value="&lt;span style=&quot;font-size: 14px;&quot;&gt;E-post&lt;/span&gt;" style="text;strokeColor=none;align=center;fillColor=none;html=1;verticalAlign=middle;whiteSpace=wrap;rounded=0;strokeWidth=1;fontStyle=0" parent="1" vertex="1">
                    <mxGeometry x="841" y="568" width="120" height="20" as="geometry"/>
                </mxCell>
                <mxCell id="151" value="&lt;span style=&quot;font-size: 14px;&quot;&gt;&lt;u&gt;AnsattID&lt;/u&gt;&lt;/span&gt;" style="text;strokeColor=none;align=center;fillColor=none;html=1;verticalAlign=middle;whiteSpace=wrap;rounded=0;strokeWidth=1;labelPosition=center;verticalLabelPosition=middle;" parent="1" vertex="1">
                    <mxGeometry x="841" y="508" width="120" height="20" as="geometry"/>
                </mxCell>
                <mxCell id="153" value="&lt;font color=&quot;#fefbfb&quot;&gt;D&lt;/font&gt;" style="ellipse;whiteSpace=wrap;html=1;aspect=fixed;fontColor=#000000;" parent="1" vertex="1">
                    <mxGeometry x="890.5" y="648.75" width="20" height="20" as="geometry"/>
                </mxCell>
                <mxCell id="154" value="" style="endArrow=none;html=1;strokeColor=default;endSize=6;targetPerimeterSpacing=0;endFill=0;exitX=1;exitY=1;exitDx=0;exitDy=0;entryX=0.5;entryY=0;entryDx=0;entryDy=0;fontColor=#000000;strokeWidth=1;" parent="1" source="153" target="157" edge="1">
                    <mxGeometry relative="1" as="geometry">
                        <mxPoint x="930.5" y="688.75" as="sourcePoint"/>
                        <mxPoint x="1030.5" y="738.75" as="targetPoint"/>
                    </mxGeometry>
                </mxCell>
                <mxCell id="155" value="" style="shape=requiredInterface;html=1;verticalLabelPosition=bottom;sketch=0;rotation=45;fontColor=#000000;" parent="154" vertex="1">
                    <mxGeometry width="10" height="10" relative="1" as="geometry">
                        <mxPoint x="-7" y="-7" as="offset"/>
                    </mxGeometry>
                </mxCell>
                <mxCell id="156" value="" style="rounded=0;whiteSpace=wrap;html=1;fontSize=14;strokeColor=default;strokeWidth=1;movable=1;resizable=1;rotatable=1;deletable=1;editable=1;connectable=1;fontColor=#000000;" parent="1" vertex="1">
                    <mxGeometry x="910.5" y="738.75" width="120" height="40" as="geometry"/>
                </mxCell>
                <mxCell id="157" value="&lt;span style=&quot;font-size: 14px;&quot;&gt;&lt;b&gt;&lt;font color=&quot;#f8f2f2&quot;&gt;Skuespiller&lt;/font&gt;&lt;/b&gt;&lt;/span&gt;" style="text;strokeColor=none;align=center;fillColor=none;html=1;verticalAlign=middle;whiteSpace=wrap;rounded=0;strokeWidth=1;movable=1;resizable=1;rotatable=1;deletable=1;editable=1;connectable=1;fontColor=#000000;" parent="1" vertex="1">
                    <mxGeometry x="910.5" y="738.75" width="120" height="40" as="geometry"/>
                </mxCell>
                <mxCell id="158" value="" style="rounded=0;whiteSpace=wrap;html=1;fontSize=14;strokeColor=default;strokeWidth=1;movable=1;resizable=1;rotatable=1;deletable=1;editable=1;connectable=1;fontColor=#000000;" parent="1" vertex="1">
                    <mxGeometry x="770.5" y="738.75" width="120" height="72.5" as="geometry"/>
                </mxCell>
                <mxCell id="159" value="&lt;span style=&quot;font-size: 14px;&quot;&gt;&lt;b&gt;&lt;font color=&quot;#ffffff&quot;&gt;Annet&lt;/font&gt;&lt;/b&gt;&lt;/span&gt;" style="text;strokeColor=none;align=center;fillColor=none;html=1;verticalAlign=middle;whiteSpace=wrap;rounded=0;strokeWidth=1;movable=1;resizable=1;rotatable=1;deletable=1;editable=1;connectable=1;fontColor=#000000;" parent="1" vertex="1">
                    <mxGeometry x="770.5" y="738.75" width="120" height="30.5" as="geometry"/>
                </mxCell>
                <mxCell id="160" value="" style="endArrow=none;html=1;strokeColor=default;endSize=6;targetPerimeterSpacing=0;endFill=0;exitX=0;exitY=1;exitDx=0;exitDy=0;entryX=0.5;entryY=0;entryDx=0;entryDy=0;fontColor=#000000;strokeWidth=1;" parent="1" source="153" target="159" edge="1">
                    <mxGeometry relative="1" as="geometry">
                        <mxPoint x="853.4300000000003" y="653.7510678118656" as="sourcePoint"/>
                        <mxPoint x="720.5010678118658" y="726.6800000000001" as="targetPoint"/>
                    </mxGeometry>
                </mxCell>
                <mxCell id="161" value="" style="shape=requiredInterface;html=1;verticalLabelPosition=bottom;sketch=0;rotation=-225;flipH=0;flipV=0;fontColor=#000000;" parent="160" vertex="1">
                    <mxGeometry width="10" height="10" relative="1" as="geometry">
                        <mxPoint x="-3" y="-7" as="offset"/>
                    </mxGeometry>
                </mxCell>
                <mxCell id="162" value="" style="shape=link;html=1;endArrow=none;endFill=0;curved=1;entryX=0.5;entryY=0;entryDx=0;entryDy=0;strokeColor=#FFFFFF;fontColor=#000000;strokeWidth=1;width=2;fillColor=#f9f7ed;exitX=0.5;exitY=1;exitDx=0;exitDy=0;" parent="1" source="143" edge="1">
                    <mxGeometry width="100" relative="1" as="geometry">
                        <mxPoint x="900.33" y="614" as="sourcePoint"/>
                        <mxPoint x="900.33" y="644" as="targetPoint"/>
                    </mxGeometry>
                </mxCell>
                <mxCell id="164" value="Stilling" style="text;html=1;align=center;verticalAlign=middle;resizable=0;points=[];autosize=1;strokeColor=none;fillColor=none;fontColor=#ffffff;" parent="1" vertex="1">
                    <mxGeometry x="795.5" y="766.25" width="70" height="28" as="geometry"/>
                </mxCell>
                <mxCell id="165" value="" style="edgeStyle=segmentEdgeStyle;endArrow=none;html=1;curved=0;rounded=0;endSize=8;startSize=8;endFill=0;strokeColor=#FFFFFF;fontColor=#ffffff;entryX=0.999;entryY=0.906;entryDx=0;entryDy=0;entryPerimeter=0;" parent="1" target="159" edge="1">
                    <mxGeometry width="50" height="50" relative="1" as="geometry">
                        <mxPoint x="770.5" y="766.25" as="sourcePoint"/>
                        <mxPoint x="850.49" y="766.25" as="targetPoint"/>
                        <Array as="points">
                            <mxPoint x="769.5" y="766.25"/>
                        </Array>
                    </mxGeometry>
                </mxCell>
                <mxCell id="168" value="Status" style="text;html=1;align=center;verticalAlign=middle;resizable=0;points=[];autosize=1;strokeColor=none;fillColor=none;fontColor=#ffffff;" parent="1" vertex="1">
                    <mxGeometry x="866" y="588" width="70" height="28" as="geometry"/>
                </mxCell>
                <mxCell id="169" value="" style="rounded=0;whiteSpace=wrap;html=1;fontSize=14;strokeColor=default;strokeWidth=1;fontColor=#ffffff;" parent="1" vertex="1">
                    <mxGeometry x="1260" y="296" width="120" height="57" as="geometry"/>
                </mxCell>
                <mxCell id="170" value="" style="rounded=0;whiteSpace=wrap;html=1;fontSize=14;strokeColor=default;strokeWidth=1;fontColor=#ffffff;" parent="1" vertex="1">
                    <mxGeometry x="1265" y="301" width="110" height="47" as="geometry"/>
                </mxCell>
                <mxCell id="171" value="&lt;span style=&quot;font-size: 14px;&quot;&gt;&lt;b&gt;Rolle&lt;/b&gt;&lt;/span&gt;" style="text;strokeColor=none;align=center;fillColor=none;html=1;verticalAlign=middle;whiteSpace=wrap;rounded=0;strokeWidth=1;fontColor=#ffffff;" parent="1" vertex="1">
                    <mxGeometry x="1265" y="301" width="110" height="25" as="geometry"/>
                </mxCell>
                <mxCell id="172" value="&lt;span style=&quot;font-size: 14px;&quot;&gt;Navn&lt;/span&gt;" style="text;strokeColor=none;align=center;fillColor=none;html=1;verticalAlign=middle;whiteSpace=wrap;rounded=0;strokeWidth=1;labelPosition=center;verticalLabelPosition=middle;fontColor=#ffffff;" parent="1" vertex="1">
                    <mxGeometry x="1265" y="326" width="110" height="20" as="geometry"/>
                </mxCell>
                <mxCell id="173" style="edgeStyle=none;html=1;exitX=0;exitY=0;exitDx=0;exitDy=0;entryX=1;entryY=0;entryDx=0;entryDy=0;endArrow=none;endFill=0;strokeColor=#FFFFFF;fontColor=#ffffff;" parent="1" source="172" target="172" edge="1">
                    <mxGeometry relative="1" as="geometry"/>
                </mxCell>
                <mxCell id="174" value="" style="edgeStyle=segmentEdgeStyle;endArrow=none;html=1;curved=0;rounded=0;endSize=8;startSize=8;endFill=0;strokeColor=#FFFFFF;fontColor=#ffffff;entryX=0.568;entryY=1.047;entryDx=0;entryDy=0;entryPerimeter=0;exitX=1;exitY=0.5;exitDx=0;exitDy=0;" parent="1" source="157" target="169" edge="1">
                    <mxGeometry width="50" height="50" relative="1" as="geometry">
                        <mxPoint x="1274" y="728.2898550724638" as="sourcePoint"/>
                        <mxPoint x="1328.0000000000002" y="385" as="targetPoint"/>
                        <Array as="points">
                            <mxPoint x="1288" y="759"/>
                            <mxPoint x="1330" y="759"/>
                            <mxPoint x="1330" y="356"/>
                        </Array>
                    </mxGeometry>
                </mxCell>
                <mxCell id="180" value="" style="rhombus;whiteSpace=wrap;html=1;fontSize=14;strokeColor=default;fontColor=#ffffff;" parent="1" vertex="1">
                    <mxGeometry x="1312" y="738.75" width="40" height="40" as="geometry"/>
                </mxCell>
                <mxCell id="181" value="&lt;b&gt;SpillerRolle&lt;br&gt;&lt;br&gt;&lt;/b&gt;" style="text;strokeColor=none;align=center;fillColor=none;html=1;verticalAlign=middle;whiteSpace=wrap;rounded=0;fontSize=14;fontColor=#ffffff;" parent="1" vertex="1">
                    <mxGeometry x="1302" y="778.75" width="60" height="20" as="geometry"/>
                </mxCell>
                <mxCell id="182" value="" style="rhombus;whiteSpace=wrap;html=1;fontSize=14;strokeColor=default;fontColor=#ffffff;" parent="1" vertex="1">
                    <mxGeometry x="1317" y="743.75" width="30" height="30" as="geometry"/>
                </mxCell>
                <mxCell id="183" value="" style="edgeStyle=segmentEdgeStyle;endArrow=none;html=1;curved=0;rounded=0;endSize=8;startSize=8;endFill=0;strokeColor=#FFFFFF;fontColor=#ffffff;exitX=1;exitY=0.5;exitDx=0;exitDy=0;" parent="1" source="129" edge="1">
                    <mxGeometry width="50" height="50" relative="1" as="geometry">
                        <mxPoint x="1134" y="154" as="sourcePoint"/>
                        <mxPoint x="1330" y="294" as="targetPoint"/>
                        <Array as="points">
                            <mxPoint x="1330" y="99"/>
                        </Array>
                    </mxGeometry>
                </mxCell>
                <mxCell id="185" value="" style="edgeStyle=segmentEdgeStyle;endArrow=none;html=1;curved=0;rounded=0;endSize=8;startSize=8;endFill=0;strokeColor=#FFFFFF;fontColor=#ffffff;exitX=0.5;exitY=1;exitDx=0;exitDy=0;" parent="1" source="129" edge="1">
                    <mxGeometry width="50" height="50" relative="1" as="geometry">
                        <mxPoint x="880.5" y="210" as="sourcePoint"/>
                        <mxPoint x="900" y="252" as="targetPoint"/>
                        <Array as="points">
                            <mxPoint x="900" y="247"/>
                        </Array>
                    </mxGeometry>
                </mxCell>
                <mxCell id="186" value="" style="rhombus;whiteSpace=wrap;html=1;fontSize=14;strokeColor=default;fontColor=#ffffff;" parent="1" vertex="1">
                    <mxGeometry x="880.5000000000001" y="168" width="40" height="40" as="geometry"/>
                </mxCell>
                <mxCell id="187" value="&lt;b&gt;AktIStykke&lt;/b&gt;" style="text;strokeColor=none;align=center;fillColor=none;html=1;verticalAlign=middle;whiteSpace=wrap;rounded=0;fontSize=14;fontColor=#ffffff;" parent="1" vertex="1">
                    <mxGeometry x="940.5" y="178" width="60" height="20" as="geometry"/>
                </mxCell>
                <mxCell id="188" value="" style="rhombus;whiteSpace=wrap;html=1;fontSize=14;strokeColor=default;fontColor=#ffffff;" parent="1" vertex="1">
                    <mxGeometry x="885.5" y="173" width="30" height="30" as="geometry"/>
                </mxCell>
                <mxCell id="190" value="" style="rhombus;whiteSpace=wrap;html=1;fontSize=14;strokeColor=default;fontColor=#ffffff;" parent="1" vertex="1">
                    <mxGeometry x="714.0000000000001" y="535.25" width="40" height="40" as="geometry"/>
                </mxCell>
                <mxCell id="191" value="&lt;b&gt;Innvolvert&lt;/b&gt;" style="text;strokeColor=none;align=left;fillColor=none;html=1;verticalAlign=middle;whiteSpace=wrap;rounded=0;fontSize=14;fontColor=#ffffff;" parent="1" vertex="1">
                    <mxGeometry x="758.5" y="545.25" width="60" height="20" as="geometry"/>
                </mxCell>
                <mxCell id="192" value="" style="rhombus;whiteSpace=wrap;html=1;fontSize=14;strokeColor=default;fontColor=#ffffff;" parent="1" vertex="1">
                    <mxGeometry x="1312" y="81" width="40" height="40" as="geometry"/>
                </mxCell>
                <mxCell id="193" value="&lt;b&gt;DeltarIAkt&lt;/b&gt;" style="text;strokeColor=none;align=center;fillColor=none;html=1;verticalAlign=middle;whiteSpace=wrap;rounded=0;fontSize=14;fontColor=#ffffff;" parent="1" vertex="1">
                    <mxGeometry x="1362" y="91" width="60" height="20" as="geometry"/>
                </mxCell>
                <mxCell id="194" value="" style="rhombus;whiteSpace=wrap;html=1;fontSize=14;strokeColor=default;fontColor=#ffffff;" parent="1" vertex="1">
                    <mxGeometry x="1317" y="86" width="30" height="30" as="geometry"/>
                </mxCell>
                <mxCell id="196" value="(0, n)" style="text;strokeColor=none;align=center;fillColor=none;html=1;verticalAlign=middle;whiteSpace=wrap;rounded=0;fontSize=14;" vertex="1" parent="1">
                    <mxGeometry x="1036" y="725" width="40" height="30" as="geometry"/>
                </mxCell>
                <mxCell id="199" value="(0, n)" style="text;strokeColor=none;align=center;fillColor=none;html=1;verticalAlign=middle;whiteSpace=wrap;rounded=0;fontSize=14;" vertex="1" parent="1">
                    <mxGeometry x="1340" y="260" width="40" height="30" as="geometry"/>
                </mxCell>
                <mxCell id="200" value="(1, n)" style="text;strokeColor=none;align=center;fillColor=none;html=1;verticalAlign=middle;whiteSpace=wrap;rounded=0;fontSize=14;" vertex="1" parent="1">
                    <mxGeometry x="1288" y="355" width="40" height="30" as="geometry"/>
                </mxCell>
                <mxCell id="201" value="(1, n)" style="text;strokeColor=none;align=center;fillColor=none;html=1;verticalAlign=middle;whiteSpace=wrap;rounded=0;fontSize=14;" vertex="1" parent="1">
                    <mxGeometry x="980" y="66" width="40" height="30" as="geometry"/>
                </mxCell>
                <mxCell id="202" value="(1, 1)" style="text;strokeColor=none;align=center;fillColor=none;html=1;verticalAlign=middle;whiteSpace=wrap;rounded=0;fontSize=14;" vertex="1" parent="1">
                    <mxGeometry x="921" y="138" width="40" height="30" as="geometry"/>
                </mxCell>
                <mxCell id="203" value="(1, n)" style="text;strokeColor=none;align=center;fillColor=none;html=1;verticalAlign=middle;whiteSpace=wrap;rounded=0;fontSize=14;" vertex="1" parent="1">
                    <mxGeometry x="916" y="218" width="40" height="30" as="geometry"/>
                </mxCell>
                <mxCell id="207" value="" style="edgeStyle=segmentEdgeStyle;endArrow=none;html=1;curved=0;rounded=0;endSize=8;startSize=8;endFill=0;exitX=0.5;exitY=1;exitDx=0;exitDy=0;" edge="1" parent="1" source="190">
                    <mxGeometry width="50" height="50" relative="1" as="geometry">
                        <mxPoint x="730.5" y="779.69" as="sourcePoint"/>
                        <mxPoint x="770.5" y="779.69" as="targetPoint"/>
                        <Array as="points">
                            <mxPoint x="734" y="780"/>
                        </Array>
                    </mxGeometry>
                </mxCell>
                <mxCell id="211" value="" style="edgeStyle=segmentEdgeStyle;endArrow=none;html=1;curved=0;rounded=0;endSize=8;startSize=8;endFill=0;exitX=0;exitY=0;exitDx=0;exitDy=0;entryX=0.5;entryY=0;entryDx=0;entryDy=0;" edge="1" parent="1" source="58" target="190">
                    <mxGeometry width="50" height="50" relative="1" as="geometry">
                        <mxPoint x="733.44" y="480" as="sourcePoint"/>
                        <mxPoint x="733" y="532" as="targetPoint"/>
                        <Array as="points">
                            <mxPoint x="733" y="336"/>
                            <mxPoint x="733" y="535"/>
                        </Array>
                    </mxGeometry>
                </mxCell>
                <mxCell id="212" value="(0, n)" style="text;strokeColor=none;align=center;fillColor=none;html=1;verticalAlign=middle;whiteSpace=wrap;rounded=0;fontSize=14;" vertex="1" parent="1">
                    <mxGeometry x="731" y="781" width="40" height="30" as="geometry"/>
                </mxCell>
                <mxCell id="213" value="(1, n)" style="text;strokeColor=none;align=center;fillColor=none;html=1;verticalAlign=middle;whiteSpace=wrap;rounded=0;fontSize=14;" vertex="1" parent="1">
                    <mxGeometry x="796" y="309" width="40" height="30" as="geometry"/>
                </mxCell>
                <mxCell id="217" value="" style="edgeStyle=segmentEdgeStyle;endArrow=none;html=1;curved=0;rounded=0;endSize=8;startSize=8;endFill=0;exitX=1;exitY=0.5;exitDx=0;exitDy=0;entryX=0;entryY=0.25;entryDx=0;entryDy=0;" edge="1" parent="1" target="61">
                    <mxGeometry width="50" height="50" relative="1" as="geometry">
                        <mxPoint x="702" y="287.5" as="sourcePoint"/>
                        <mxPoint x="754" y="280" as="targetPoint"/>
                        <Array as="points">
                            <mxPoint x="840" y="288"/>
                        </Array>
                    </mxGeometry>
                </mxCell>
                <mxCell id="218" value="" style="edgeStyle=segmentEdgeStyle;endArrow=none;html=1;curved=0;rounded=0;endSize=8;startSize=8;endFill=0;exitX=0.5;exitY=1;exitDx=0;exitDy=0;" edge="1" parent="1" source="45">
                    <mxGeometry width="50" height="50" relative="1" as="geometry">
                        <mxPoint x="686" y="224" as="sourcePoint"/>
                        <mxPoint x="682" y="266" as="targetPoint"/>
                        <Array as="points">
                            <mxPoint x="682" y="252"/>
                            <mxPoint x="682" y="252"/>
                        </Array>
                    </mxGeometry>
                </mxCell>
                <mxCell id="219" value="(1, 1)" style="text;strokeColor=none;align=center;fillColor=none;html=1;verticalAlign=middle;whiteSpace=wrap;rounded=0;fontSize=14;" vertex="1" parent="1">
                    <mxGeometry x="697" y="229" width="40" height="30" as="geometry"/>
                </mxCell>
                <mxCell id="220" value="(1, n)" style="text;strokeColor=none;align=center;fillColor=none;html=1;verticalAlign=middle;whiteSpace=wrap;rounded=0;fontSize=14;" vertex="1" parent="1">
                    <mxGeometry x="800" y="256" width="40" height="30" as="geometry"/>
                </mxCell>
                <mxCell id="221" value="" style="rhombus;whiteSpace=wrap;html=1;fontSize=14;strokeColor=default;" vertex="1" parent="1">
                    <mxGeometry x="662.0000000000001" y="267.5" width="40" height="40" as="geometry"/>
                </mxCell>
                <mxCell id="223" value="" style="rhombus;whiteSpace=wrap;html=1;fontSize=14;strokeColor=default;" vertex="1" parent="1">
                    <mxGeometry x="667" y="272.5" width="30" height="30" as="geometry"/>
                </mxCell>
                <mxCell id="224" value="" style="rhombus;whiteSpace=wrap;html=1;fontSize=14;strokeColor=default;" vertex="1" parent="1">
                    <mxGeometry x="390.0000000000001" y="495" width="40" height="40" as="geometry"/>
                </mxCell>
                <mxCell id="225" value="&lt;b style=&quot;border-color: var(--border-color);&quot;&gt;iSal&lt;/b&gt;" style="text;strokeColor=none;align=center;fillColor=none;html=1;verticalAlign=middle;whiteSpace=wrap;rounded=0;fontSize=14;" vertex="1" parent="1">
                    <mxGeometry x="380" y="475" width="60" height="20" as="geometry"/>
                </mxCell>
                <mxCell id="226" value="" style="rhombus;whiteSpace=wrap;html=1;fontSize=14;strokeColor=default;" vertex="1" parent="1">
                    <mxGeometry x="395" y="500" width="30" height="30" as="geometry"/>
                </mxCell>
                <mxCell id="230" value="" style="edgeStyle=segmentEdgeStyle;endArrow=none;html=1;curved=0;rounded=0;endSize=8;startSize=8;endFill=0;entryX=0.363;entryY=-0.077;entryDx=0;entryDy=0;entryPerimeter=0;" edge="1" parent="1" target="28">
                    <mxGeometry width="50" height="50" relative="1" as="geometry">
                        <mxPoint x="623" y="210" as="sourcePoint"/>
                        <mxPoint x="542" y="297.5000000000001" as="targetPoint"/>
                        <Array as="points">
                            <mxPoint x="623" y="210"/>
                            <mxPoint x="546" y="210"/>
                            <mxPoint x="546" y="224"/>
                            <mxPoint x="546" y="224"/>
                        </Array>
                    </mxGeometry>
                </mxCell>
                <mxCell id="232" value="" style="edgeStyle=segmentEdgeStyle;endArrow=none;html=1;curved=0;rounded=0;endSize=8;startSize=8;endFill=0;entryX=0;entryY=0.5;entryDx=0;entryDy=0;exitX=1;exitY=0;exitDx=0;exitDy=0;" edge="1" parent="1" source="88" target="224">
                    <mxGeometry width="50" height="50" relative="1" as="geometry">
                        <mxPoint x="336" y="518" as="sourcePoint"/>
                        <mxPoint x="376" y="518" as="targetPoint"/>
                        <Array as="points">
                            <mxPoint x="315" y="515"/>
                        </Array>
                    </mxGeometry>
                </mxCell>
                <mxCell id="233" value="" style="edgeStyle=segmentEdgeStyle;endArrow=none;html=1;curved=0;rounded=0;endSize=8;startSize=8;endFill=0;exitX=1;exitY=0.5;exitDx=0;exitDy=0;entryX=0;entryY=0.25;entryDx=0;entryDy=0;" edge="1" parent="1" source="224" target="32">
                    <mxGeometry width="50" height="50" relative="1" as="geometry">
                        <mxPoint x="448" y="518" as="sourcePoint"/>
                        <mxPoint x="488" y="518" as="targetPoint"/>
                        <Array as="points">
                            <mxPoint x="502" y="515"/>
                        </Array>
                    </mxGeometry>
                </mxCell>
                <mxCell id="242" value="" style="rounded=0;whiteSpace=wrap;html=1;fontSize=14;strokeColor=default;strokeWidth=1;" vertex="1" parent="1">
                    <mxGeometry x="460" y="28" width="120" height="68" as="geometry"/>
                </mxCell>
                <mxCell id="243" value="&lt;b&gt;&lt;font style=&quot;font-size: 14px;&quot;&gt;Kundegruppe&lt;/font&gt;&lt;/b&gt;" style="text;strokeColor=none;align=center;fillColor=none;html=1;verticalAlign=middle;whiteSpace=wrap;rounded=0;strokeWidth=1;" vertex="1" parent="1">
                    <mxGeometry x="460" y="28" width="120" height="25" as="geometry"/>
                </mxCell>
                <mxCell id="244" style="edgeStyle=none;html=1;exitX=0;exitY=0;exitDx=0;exitDy=0;entryX=1;entryY=0;entryDx=0;entryDy=0;endArrow=none;endFill=0;" edge="1" parent="1">
                    <mxGeometry relative="1" as="geometry">
                        <mxPoint x="460" y="53" as="sourcePoint"/>
                        <mxPoint x="580" y="53" as="targetPoint"/>
                    </mxGeometry>
                </mxCell>
                <mxCell id="248" value="&lt;span style=&quot;border-bottom: 1px solid black&quot;&gt;&lt;font style=&quot;font-size: 14px;&quot;&gt;Kundegruppe&lt;/font&gt;&lt;/span&gt;" style="text;strokeColor=none;align=center;fillColor=none;html=1;verticalAlign=middle;whiteSpace=wrap;rounded=0;strokeWidth=1;labelPosition=center;verticalLabelPosition=middle;fontStyle=4" vertex="1" parent="1">
                    <mxGeometry x="460" y="53" width="120" height="20" as="geometry"/>
                </mxCell>
                <mxCell id="250" value="(1, n)" style="text;strokeColor=none;align=center;fillColor=none;html=1;verticalAlign=middle;whiteSpace=wrap;rounded=0;fontSize=14;" vertex="1" parent="1">
                    <mxGeometry x="450" y="521" width="40" height="30" as="geometry"/>
                </mxCell>
                <mxCell id="251" value="(1, 1)" style="text;strokeColor=none;align=center;fillColor=none;html=1;verticalAlign=middle;whiteSpace=wrap;rounded=0;fontSize=14;" vertex="1" parent="1">
                    <mxGeometry x="322" y="483" width="40" height="30" as="geometry"/>
                </mxCell>
                <mxCell id="259" style="edgeStyle=none;html=1;exitX=0.5;exitY=1;exitDx=0;exitDy=0;entryX=0.5;entryY=1;entryDx=0;entryDy=0;" edge="1" parent="1" source="252" target="256">
                    <mxGeometry relative="1" as="geometry"/>
                </mxCell>
                <mxCell id="252" value="" style="rounded=0;whiteSpace=wrap;html=1;fontSize=14;strokeColor=default;strokeWidth=1;" vertex="1" parent="1">
                    <mxGeometry x="56" y="121" width="120" height="84" as="geometry"/>
                </mxCell>
                <mxCell id="253" value="&lt;b&gt;&lt;font style=&quot;font-size: 14px;&quot;&gt;BillettKjøp&lt;/font&gt;&lt;/b&gt;" style="text;strokeColor=none;align=center;fillColor=none;html=1;verticalAlign=middle;whiteSpace=wrap;rounded=0;strokeWidth=1;" vertex="1" parent="1">
                    <mxGeometry x="56" y="121" width="120" height="25" as="geometry"/>
                </mxCell>
                <mxCell id="254" style="edgeStyle=none;html=1;exitX=0;exitY=0;exitDx=0;exitDy=0;entryX=1;entryY=0;entryDx=0;entryDy=0;endArrow=none;endFill=0;" edge="1" parent="1">
                    <mxGeometry relative="1" as="geometry">
                        <mxPoint x="56" y="146" as="sourcePoint"/>
                        <mxPoint x="176" y="146" as="targetPoint"/>
                    </mxGeometry>
                </mxCell>
                <mxCell id="255" value="&lt;font style=&quot;font-size: 14px;&quot;&gt;Dato&lt;/font&gt;" style="text;strokeColor=none;align=center;fillColor=none;html=1;verticalAlign=middle;whiteSpace=wrap;rounded=0;strokeWidth=1;fontStyle=0" vertex="1" parent="1">
                    <mxGeometry x="56" y="166" width="120" height="20" as="geometry"/>
                </mxCell>
                <mxCell id="256" value="&lt;font style=&quot;font-size: 14px;&quot;&gt;Tid&lt;br&gt;&lt;/font&gt;" style="text;strokeColor=none;align=center;fillColor=none;html=1;verticalAlign=middle;whiteSpace=wrap;rounded=0;strokeWidth=1;fontStyle=0" vertex="1" parent="1">
                    <mxGeometry x="56" y="186" width="120" height="20" as="geometry"/>
                </mxCell>
                <mxCell id="258" value="&lt;span style=&quot;border-bottom: 1px solid black&quot;&gt;&lt;font style=&quot;font-size: 14px;&quot;&gt;&lt;u&gt;kjøpsReferanse&lt;/u&gt;&lt;/font&gt;&lt;/span&gt;" style="text;strokeColor=none;align=center;fillColor=none;html=1;verticalAlign=middle;whiteSpace=wrap;rounded=0;strokeWidth=1;labelPosition=center;verticalLabelPosition=middle;" vertex="1" parent="1">
                    <mxGeometry x="56" y="146" width="120" height="20" as="geometry"/>
                </mxCell>
                <mxCell id="266" value="" style="rhombus;whiteSpace=wrap;html=1;fontSize=14;strokeColor=default;" vertex="1" parent="1">
                    <mxGeometry x="512.0000000000001" y="141" width="40" height="40" as="geometry"/>
                </mxCell>
                <mxCell id="267" value="&lt;b&gt;billettTilForestilling&lt;/b&gt;" style="text;strokeColor=none;align=center;fillColor=none;html=1;verticalAlign=middle;whiteSpace=wrap;rounded=0;fontSize=14;" vertex="1" parent="1">
                    <mxGeometry x="502" y="178" width="60" height="20" as="geometry"/>
                </mxCell>
                <mxCell id="273" value="" style="edgeStyle=segmentEdgeStyle;endArrow=none;html=1;curved=0;rounded=0;endSize=8;startSize=8;endFill=0;entryX=0;entryY=0.5;entryDx=0;entryDy=0;" edge="1" parent="1" source="70" target="266">
                    <mxGeometry width="50" height="50" relative="1" as="geometry">
                        <mxPoint x="442" y="164" as="sourcePoint"/>
                        <mxPoint x="482" y="164" as="targetPoint"/>
                    </mxGeometry>
                </mxCell>
                <mxCell id="274" value="" style="edgeStyle=segmentEdgeStyle;endArrow=none;html=1;curved=0;rounded=0;endSize=8;startSize=8;endFill=0;exitX=1;exitY=0.5;exitDx=0;exitDy=0;entryX=0;entryY=0.5;entryDx=0;entryDy=0;" edge="1" parent="1" source="266" target="47">
                    <mxGeometry width="50" height="50" relative="1" as="geometry">
                        <mxPoint x="574" y="168" as="sourcePoint"/>
                        <mxPoint x="616" y="154" as="targetPoint"/>
                        <Array as="points">
                            <mxPoint x="627" y="161"/>
                        </Array>
                    </mxGeometry>
                </mxCell>
                <mxCell id="276" value="" style="rhombus;whiteSpace=wrap;html=1;fontSize=14;strokeColor=default;" vertex="1" parent="1">
                    <mxGeometry x="84.00000000000011" y="288" width="40" height="40" as="geometry"/>
                </mxCell>
                <mxCell id="277" value="&lt;b&gt;kundeKjøp&lt;/b&gt;" style="text;strokeColor=none;align=left;fillColor=none;html=1;verticalAlign=middle;whiteSpace=wrap;rounded=0;fontSize=14;" vertex="1" parent="1">
                    <mxGeometry x="129" y="298" width="60" height="20" as="geometry"/>
                </mxCell>
                <mxCell id="279" value="" style="edgeStyle=segmentEdgeStyle;endArrow=none;html=1;curved=0;rounded=0;endSize=8;startSize=8;endFill=0;exitX=0.5;exitY=1;exitDx=0;exitDy=0;entryX=0.606;entryY=-0.093;entryDx=0;entryDy=0;entryPerimeter=0;" edge="1" parent="1" source="276" target="18">
                    <mxGeometry width="50" height="50" relative="1" as="geometry">
                        <mxPoint x="98" y="364" as="sourcePoint"/>
                        <mxPoint x="98" y="404" as="targetPoint"/>
                        <Array as="points">
                            <mxPoint x="104" y="430"/>
                        </Array>
                    </mxGeometry>
                </mxCell>
                <mxCell id="280" value="" style="edgeStyle=segmentEdgeStyle;endArrow=none;html=1;curved=0;rounded=0;endSize=8;startSize=8;endFill=0;entryX=0.5;entryY=0;entryDx=0;entryDy=0;exitX=0.5;exitY=1;exitDx=0;exitDy=0;" edge="1" parent="1" source="256" target="276">
                    <mxGeometry width="50" height="50" relative="1" as="geometry">
                        <mxPoint x="98" y="238" as="sourcePoint"/>
                        <mxPoint x="98" y="278" as="targetPoint"/>
                        <Array as="points">
                            <mxPoint x="104" y="206"/>
                        </Array>
                    </mxGeometry>
                </mxCell>
                <mxCell id="281" value="" style="rhombus;whiteSpace=wrap;html=1;fontSize=14;strokeColor=default;" vertex="1" parent="1">
                    <mxGeometry x="234.0000000000001" y="141" width="40" height="40" as="geometry"/>
                </mxCell>
                <mxCell id="282" value="&lt;b&gt;tilhørerKjøp&lt;/b&gt;" style="text;strokeColor=none;align=center;fillColor=none;html=1;verticalAlign=middle;whiteSpace=wrap;rounded=0;fontSize=14;" vertex="1" parent="1">
                    <mxGeometry x="224" y="181" width="60" height="20" as="geometry"/>
                </mxCell>
                <mxCell id="283" value="" style="edgeStyle=segmentEdgeStyle;endArrow=none;html=1;curved=0;rounded=0;endSize=8;startSize=8;endFill=0;entryX=0;entryY=0.5;entryDx=0;entryDy=0;" edge="1" parent="1" source="255" target="281">
                    <mxGeometry width="50" height="50" relative="1" as="geometry">
                        <mxPoint x="176" y="176" as="sourcePoint"/>
                        <mxPoint x="216" y="176" as="targetPoint"/>
                    </mxGeometry>
                </mxCell>
                <mxCell id="284" value="" style="edgeStyle=segmentEdgeStyle;endArrow=none;html=1;curved=0;rounded=0;endSize=8;startSize=8;endFill=0;exitX=1;exitY=0.5;exitDx=0;exitDy=0;" edge="1" parent="1" source="281">
                    <mxGeometry width="50" height="50" relative="1" as="geometry">
                        <mxPoint x="280" y="154" as="sourcePoint"/>
                        <mxPoint x="320" y="154" as="targetPoint"/>
                        <Array as="points">
                            <mxPoint x="274" y="154"/>
                        </Array>
                    </mxGeometry>
                </mxCell>
                <mxCell id="286" value="" style="rhombus;whiteSpace=wrap;html=1;fontSize=14;strokeColor=default;" vertex="1" parent="1">
                    <mxGeometry x="284.0000000000001" y="301" width="40" height="40" as="geometry"/>
                </mxCell>
                <mxCell id="287" value="&lt;b&gt;tilhørerBilett&lt;/b&gt;" style="text;strokeColor=none;align=left;fillColor=none;html=1;verticalAlign=middle;whiteSpace=wrap;rounded=0;fontSize=14;" vertex="1" parent="1">
                    <mxGeometry x="329" y="311" width="60" height="20" as="geometry"/>
                </mxCell>
                <mxCell id="288" value="" style="edgeStyle=segmentEdgeStyle;endArrow=none;html=1;curved=0;rounded=0;endSize=8;startSize=8;endFill=0;exitX=0.5;exitY=1;exitDx=0;exitDy=0;" edge="1" parent="1" source="286">
                    <mxGeometry width="50" height="50" relative="1" as="geometry">
                        <mxPoint x="294" y="406" as="sourcePoint"/>
                        <mxPoint x="294" y="446" as="targetPoint"/>
                        <Array as="points">
                            <mxPoint x="294" y="341"/>
                        </Array>
                    </mxGeometry>
                </mxCell>
                <mxCell id="289" value="" style="edgeStyle=segmentEdgeStyle;endArrow=none;html=1;curved=0;rounded=0;endSize=8;startSize=8;endFill=0;entryX=0.5;entryY=0;entryDx=0;entryDy=0;" edge="1" parent="1" target="286">
                    <mxGeometry width="50" height="50" relative="1" as="geometry">
                        <mxPoint x="378" y="238" as="sourcePoint"/>
                        <mxPoint x="303.44" y="276" as="targetPoint"/>
                        <Array as="points">
                            <mxPoint x="378" y="252"/>
                            <mxPoint x="304" y="252"/>
                        </Array>
                    </mxGeometry>
                </mxCell>
                <mxCell id="292" value="(1, 1)" style="text;strokeColor=none;align=center;fillColor=none;html=1;verticalAlign=middle;whiteSpace=wrap;rounded=0;fontSize=14;" vertex="1" parent="1">
                    <mxGeometry x="390" y="229" width="40" height="30" as="geometry"/>
                </mxCell>
                <mxCell id="293" value="(1, 1)" style="text;strokeColor=none;align=center;fillColor=none;html=1;verticalAlign=middle;whiteSpace=wrap;rounded=0;fontSize=14;" vertex="1" parent="1">
                    <mxGeometry x="244" y="419" width="40" height="30" as="geometry"/>
                </mxCell>
                <mxCell id="294" value="(1, 1)" style="text;strokeColor=none;align=center;fillColor=none;html=1;verticalAlign=middle;whiteSpace=wrap;rounded=0;fontSize=14;" vertex="1" parent="1">
                    <mxGeometry x="442" y="136" width="40" height="30" as="geometry"/>
                </mxCell>
                <mxCell id="295" value="(0, n)" style="text;strokeColor=none;align=center;fillColor=none;html=1;verticalAlign=middle;whiteSpace=wrap;rounded=0;fontSize=14;" vertex="1" parent="1">
                    <mxGeometry x="576" y="131" width="40" height="30" as="geometry"/>
                </mxCell>
                <mxCell id="300" value="(1, n)" style="text;strokeColor=none;align=center;fillColor=none;html=1;verticalAlign=middle;whiteSpace=wrap;rounded=0;fontSize=14;" vertex="1" parent="1">
                    <mxGeometry x="189" y="145.5" width="40" height="30" as="geometry"/>
                </mxCell>
                <mxCell id="302" value="(1, 1)" style="text;strokeColor=none;align=center;fillColor=none;html=1;verticalAlign=middle;whiteSpace=wrap;rounded=0;fontSize=14;" vertex="1" parent="1">
                    <mxGeometry x="274" y="124" width="40" height="30" as="geometry"/>
                </mxCell>
                <mxCell id="303" value="(1, 1)" style="text;strokeColor=none;align=center;fillColor=none;html=1;verticalAlign=middle;whiteSpace=wrap;rounded=0;fontSize=14;" vertex="1" parent="1">
                    <mxGeometry x="124" y="218" width="40" height="30" as="geometry"/>
                </mxCell>
                <mxCell id="304" value="(0, n)" style="text;strokeColor=none;align=center;fillColor=none;html=1;verticalAlign=middle;whiteSpace=wrap;rounded=0;fontSize=14;" vertex="1" parent="1">
                    <mxGeometry x="124" y="402" width="40" height="30" as="geometry"/>
                </mxCell>
                <mxCell id="306" value="" style="rounded=0;whiteSpace=wrap;html=1;fontSize=14;strokeColor=default;strokeWidth=1;" vertex="1" parent="1">
                    <mxGeometry x="496" y="733.75" width="120" height="65" as="geometry"/>
                </mxCell>
                <mxCell id="307" value="&lt;span style=&quot;font-size: 14px;&quot;&gt;&lt;b&gt;Teater&lt;/b&gt;&lt;/span&gt;" style="text;strokeColor=none;align=center;fillColor=none;html=1;verticalAlign=middle;whiteSpace=wrap;rounded=0;strokeWidth=1;" vertex="1" parent="1">
                    <mxGeometry x="496" y="733.75" width="120" height="25" as="geometry"/>
                </mxCell>
                <mxCell id="308" style="edgeStyle=none;html=1;exitX=0;exitY=0;exitDx=0;exitDy=0;entryX=1;entryY=0;entryDx=0;entryDy=0;endArrow=none;endFill=0;" edge="1" parent="1">
                    <mxGeometry relative="1" as="geometry">
                        <mxPoint x="496" y="758.75" as="sourcePoint"/>
                        <mxPoint x="616.0000000000002" y="758.75" as="targetPoint"/>
                    </mxGeometry>
                </mxCell>
                <mxCell id="309" value="&lt;span style=&quot;font-size: 14px;&quot;&gt;Navn&lt;/span&gt;" style="text;strokeColor=none;align=center;fillColor=none;html=1;verticalAlign=middle;whiteSpace=wrap;rounded=0;strokeWidth=1;fontStyle=0" vertex="1" parent="1">
                    <mxGeometry x="496" y="778.75" width="120" height="20" as="geometry"/>
                </mxCell>
                <mxCell id="310" value="&lt;span style=&quot;font-size: 14px;&quot;&gt;&lt;u&gt;TeaterID&lt;/u&gt;&lt;/span&gt;" style="text;strokeColor=none;align=center;fillColor=none;html=1;verticalAlign=middle;whiteSpace=wrap;rounded=0;strokeWidth=1;labelPosition=center;verticalLabelPosition=middle;" vertex="1" parent="1">
                    <mxGeometry x="496" y="764.25" width="120" height="14.5" as="geometry"/>
                </mxCell>
                <mxCell id="312" value="" style="rounded=0;whiteSpace=wrap;html=1;fontSize=14;strokeColor=default;strokeWidth=1;" vertex="1" parent="1">
                    <mxGeometry x="1036" y="430" width="120" height="65" as="geometry"/>
                </mxCell>
                <mxCell id="313" value="&lt;span style=&quot;font-size: 14px;&quot;&gt;&lt;b&gt;Sesong&lt;/b&gt;&lt;/span&gt;" style="text;strokeColor=none;align=center;fillColor=none;html=1;verticalAlign=middle;whiteSpace=wrap;rounded=0;strokeWidth=1;" vertex="1" parent="1">
                    <mxGeometry x="1036" y="430" width="120" height="25" as="geometry"/>
                </mxCell>
                <mxCell id="314" style="edgeStyle=none;html=1;exitX=0;exitY=0;exitDx=0;exitDy=0;entryX=1;entryY=0;entryDx=0;entryDy=0;endArrow=none;endFill=0;" edge="1" parent="1">
                    <mxGeometry relative="1" as="geometry">
                        <mxPoint x="1036" y="455" as="sourcePoint"/>
                        <mxPoint x="1156.0000000000002" y="455" as="targetPoint"/>
                    </mxGeometry>
                </mxCell>
                <mxCell id="315" value="&lt;span style=&quot;font-size: 14px;&quot;&gt;Sluttdato&lt;/span&gt;" style="text;strokeColor=none;align=center;fillColor=none;html=1;verticalAlign=middle;whiteSpace=wrap;rounded=0;strokeWidth=1;fontStyle=0" vertex="1" parent="1">
                    <mxGeometry x="1036" y="475" width="120" height="20" as="geometry"/>
                </mxCell>
                <mxCell id="316" value="&lt;span style=&quot;font-size: 14px;&quot;&gt;&lt;u&gt;StartDato&lt;/u&gt;&lt;/span&gt;" style="text;strokeColor=none;align=center;fillColor=none;html=1;verticalAlign=middle;whiteSpace=wrap;rounded=0;strokeWidth=1;labelPosition=center;verticalLabelPosition=middle;" vertex="1" parent="1">
                    <mxGeometry x="1036" y="455" width="120" height="20" as="geometry"/>
                </mxCell>
                <mxCell id="317" value="" style="edgeStyle=segmentEdgeStyle;endArrow=none;html=1;curved=0;rounded=0;endSize=8;startSize=8;endFill=0;entryX=0.472;entryY=0.018;entryDx=0;entryDy=0;entryPerimeter=0;" edge="1" parent="1" target="313">
                    <mxGeometry width="50" height="50" relative="1" as="geometry">
                        <mxPoint x="960" y="318" as="sourcePoint"/>
                        <mxPoint x="1042" y="358" as="targetPoint"/>
                        <Array as="points">
                            <mxPoint x="1092" y="318"/>
                            <mxPoint x="1092" y="358"/>
                            <mxPoint x="1093" y="358"/>
                        </Array>
                    </mxGeometry>
                </mxCell>
                <mxCell id="319" value="&lt;b&gt;TeaterSesong&lt;/b&gt;" style="text;strokeColor=none;align=center;fillColor=none;html=1;verticalAlign=middle;whiteSpace=wrap;rounded=0;fontSize=14;" vertex="1" parent="1">
                    <mxGeometry x="642" y="421" width="60" height="20" as="geometry"/>
                </mxCell>
                <mxCell id="320" value="" style="rhombus;whiteSpace=wrap;html=1;fontSize=14;strokeColor=default;" vertex="1" parent="1">
                    <mxGeometry x="1076" y="299" width="40" height="40" as="geometry"/>
                </mxCell>
                <mxCell id="321" value="&lt;b&gt;StykkerISesong&lt;/b&gt;" style="text;strokeColor=none;align=center;fillColor=none;html=1;verticalAlign=middle;whiteSpace=wrap;rounded=0;fontSize=14;" vertex="1" parent="1">
                    <mxGeometry x="1066" y="279" width="60" height="20" as="geometry"/>
                </mxCell>
                <mxCell id="322" value="(1, 1)" style="text;strokeColor=none;align=center;fillColor=none;html=1;verticalAlign=middle;whiteSpace=wrap;rounded=0;fontSize=14;" vertex="1" parent="1">
                    <mxGeometry x="966" y="288" width="40" height="30" as="geometry"/>
                </mxCell>
                <mxCell id="323" value="(1, n)" style="text;strokeColor=none;align=center;fillColor=none;html=1;verticalAlign=middle;whiteSpace=wrap;rounded=0;fontSize=14;" vertex="1" parent="1">
                    <mxGeometry x="1092" y="399.25" width="40" height="30" as="geometry"/>
                </mxCell>
                <mxCell id="324" value="(0, n)" style="text;strokeColor=none;align=center;fillColor=none;html=1;verticalAlign=middle;whiteSpace=wrap;rounded=0;fontSize=14;" vertex="1" parent="1">
                    <mxGeometry x="622" y="739.25" width="40" height="30" as="geometry"/>
                </mxCell>
                <mxCell id="325" value="" style="edgeStyle=segmentEdgeStyle;endArrow=none;html=1;curved=0;rounded=0;endSize=8;startSize=8;endFill=0;exitX=0.5;exitY=1;exitDx=0;exitDy=0;entryX=0.5;entryY=0;entryDx=0;entryDy=0;" edge="1" parent="1" source="34" target="307">
                    <mxGeometry width="50" height="50" relative="1" as="geometry">
                        <mxPoint x="672" y="574" as="sourcePoint"/>
                        <mxPoint x="712" y="574" as="targetPoint"/>
                        <Array as="points">
                            <mxPoint x="562" y="734"/>
                        </Array>
                    </mxGeometry>
                </mxCell>
                <mxCell id="328" value="" style="rhombus;whiteSpace=wrap;html=1;fontSize=14;strokeColor=default;" vertex="1" parent="1">
                    <mxGeometry x="544.5000000000001" y="627.5" width="40" height="40" as="geometry"/>
                </mxCell>
                <mxCell id="329" value="&lt;b&gt;SalITeater&lt;/b&gt;" style="text;strokeColor=none;align=right;fillColor=none;html=1;verticalAlign=middle;whiteSpace=wrap;rounded=0;fontSize=14;" vertex="1" parent="1">
                    <mxGeometry x="479.5" y="637.5" width="60" height="20" as="geometry"/>
                </mxCell>
                <mxCell id="330" value="(1, n)" style="text;strokeColor=none;align=center;fillColor=none;html=1;verticalAlign=middle;whiteSpace=wrap;rounded=0;fontSize=14;" vertex="1" parent="1">
                    <mxGeometry x="515" y="704" width="40" height="30" as="geometry"/>
                </mxCell>
                <mxCell id="331" value="(1, 1)" style="text;strokeColor=none;align=center;fillColor=none;html=1;verticalAlign=middle;whiteSpace=wrap;rounded=0;fontSize=14;" vertex="1" parent="1">
                    <mxGeometry x="562" y="568" width="40" height="30" as="geometry"/>
                </mxCell>
                <mxCell id="332" value="(1, 1)" style="text;strokeColor=none;align=center;fillColor=none;html=1;verticalAlign=middle;whiteSpace=wrap;rounded=0;fontSize=14;" vertex="1" parent="1">
                    <mxGeometry x="990.5" y="436" width="40" height="30" as="geometry"/>
                </mxCell>
                <mxCell id="333" value="" style="edgeStyle=segmentEdgeStyle;endArrow=none;html=1;curved=0;rounded=0;endSize=8;startSize=8;endFill=0;exitX=1;exitY=0.25;exitDx=0;exitDy=0;" edge="1" parent="1" source="310" target="318">
                    <mxGeometry width="50" height="50" relative="1" as="geometry">
                        <mxPoint x="616" y="767.875" as="sourcePoint"/>
                        <mxPoint x="1078" y="434" as="targetPoint"/>
                        <Array as="points">
                            <mxPoint x="662" y="768"/>
                        </Array>
                    </mxGeometry>
                </mxCell>
                <mxCell id="318" value="" style="rhombus;whiteSpace=wrap;html=1;fontSize=14;strokeColor=default;" vertex="1" parent="1">
                    <mxGeometry x="651.0000000000001" y="442.5" width="40" height="40" as="geometry"/>
                </mxCell>
                <mxCell id="335" value="" style="edgeStyle=segmentEdgeStyle;endArrow=none;html=1;curved=0;rounded=0;endSize=8;startSize=8;endFill=0;exitX=1;exitY=0.5;exitDx=0;exitDy=0;entryX=0;entryY=0.25;entryDx=0;entryDy=0;" edge="1" parent="1" source="318" target="316">
                    <mxGeometry width="50" height="50" relative="1" as="geometry">
                        <mxPoint x="728" y="518" as="sourcePoint"/>
                        <mxPoint x="768" y="518" as="targetPoint"/>
                        <Array as="points">
                            <mxPoint x="691" y="462"/>
                            <mxPoint x="1036" y="462"/>
                        </Array>
                    </mxGeometry>
                </mxCell>
                <mxCell id="336" value="(1, 1)" style="text;strokeColor=none;align=center;fillColor=none;html=1;verticalAlign=middle;whiteSpace=wrap;rounded=0;fontSize=14;" vertex="1" parent="1">
                    <mxGeometry x="582" y="205" width="40" height="30" as="geometry"/>
                </mxCell>
                <mxCell id="337" value="(0, n)" style="text;strokeColor=none;align=center;fillColor=none;html=1;verticalAlign=middle;whiteSpace=wrap;rounded=0;fontSize=14;" vertex="1" parent="1">
                    <mxGeometry x="482" y="385" width="40" height="30" as="geometry"/>
                </mxCell>
                <mxCell id="339" value="" style="rhombus;whiteSpace=wrap;html=1;fontSize=14;strokeColor=default;" vertex="1" parent="1">
                    <mxGeometry x="525.0000000000001" y="278" width="40" height="40" as="geometry"/>
                </mxCell>
                <mxCell id="340" value="&lt;b&gt;ForestillingI&lt;/b&gt;" style="text;strokeColor=none;align=right;fillColor=none;html=1;verticalAlign=middle;whiteSpace=wrap;rounded=0;fontSize=14;" vertex="1" parent="1">
                    <mxGeometry x="460" y="288" width="60" height="20" as="geometry"/>
                </mxCell>
                <mxCell id="341" value="&lt;font color=&quot;#ffffff&quot;&gt;Pris&lt;/font&gt;" style="ellipse;whiteSpace=wrap;html=1;fontSize=14;fontColor=#000000;aspect=fixed;" vertex="1" parent="1">
                    <mxGeometry x="552" y="103" width="46.67" height="28" as="geometry"/>
                </mxCell>
                <mxCell id="350" value="" style="edgeStyle=segmentEdgeStyle;endArrow=none;html=1;curved=0;rounded=0;endSize=8;startSize=8;endFill=0;fontColor=#FFFFFF;entryX=0.5;entryY=0;entryDx=0;entryDy=0;" edge="1" parent="1" target="266">
                    <mxGeometry width="50" height="50" relative="1" as="geometry">
                        <mxPoint x="531.9" y="96" as="sourcePoint"/>
                        <mxPoint x="531.9" y="136" as="targetPoint"/>
                        <Array as="points"/>
                    </mxGeometry>
                </mxCell>
                <mxCell id="351" value="" style="edgeStyle=segmentEdgeStyle;endArrow=none;html=1;curved=0;rounded=0;endSize=8;startSize=8;endFill=0;fontColor=#FFFFFF;entryX=0;entryY=1;entryDx=0;entryDy=0;" edge="1" parent="1" target="341">
                    <mxGeometry width="50" height="50" relative="1" as="geometry">
                        <mxPoint x="541.99" y="150.82" as="sourcePoint"/>
                        <mxPoint x="581.99" y="150.82" as="targetPoint"/>
                        <Array as="points">
                            <mxPoint x="542" y="140"/>
                            <mxPoint x="560" y="140"/>
                            <mxPoint x="560" y="127"/>
                        </Array>
                    </mxGeometry>
                </mxCell>
                <mxCell id="352" value="(1, 1)" style="text;strokeColor=none;align=center;fillColor=none;html=1;verticalAlign=middle;whiteSpace=wrap;rounded=0;fontSize=14;fontColor=#FFFFFF;" vertex="1" parent="1">
                    <mxGeometry x="490" y="91" width="40" height="30" as="geometry"/>
                </mxCell>
            </root>
        </mxGraphModel>
    </diagram>
</mxfile>